<?xml version="1.0" encoding="utf-8"?>
<!-- Generator: Adobe Illustrator 24.0.0, SVG Export Plug-In . SVG Version: 6.00 Build 0)  -->
<svg version="1.1" id="Capa_1" xmlns="http://www.w3.org/2000/svg" xmlns:xlink="http://www.w3.org/1999/xlink" x="0px" y="0px"
	 viewBox="0 0 512 512" style="enable-background:new 0 0 512 512;" xml:space="preserve">
<style type="text/css">
	.st0{fill:#5677C1;}
	.st1{fill:#4C69BA;}
</style>
<path class="st0" d="M248.8,1.7L19.5,112.3c-2.9,1.4-4.7,4.3-4.7,7.5v272.3c0,3.2,1.8,6.1,4.7,7.5l229.3,110.7
	c4.6,2.2,9.9,2.2,14.5,0l229.3-110.7c2.9-1.4,4.7-4.3,4.7-7.5V119.8c0-3.2-1.8-6.1-4.7-7.5L263.2,1.7C258.7-0.6,253.3-0.6,248.8,1.7
	z"/>
<path class="st1" d="M16.2,115.3c-0.9,1.3-1.4,2.9-1.4,4.6v272.3c0,3.2,1.8,6.1,4.7,7.5l229.3,110.7c2.3,1.1,4.8,1.7,7.2,1.7V231
	L16.2,115.3z"/>
<path class="st0" d="M495.8,115.3c0.9,1.3,1.4,2.9,1.4,4.6v272.3c0,3.2-1.8,6.1-4.7,7.5L263.2,510.3c-2.3,1.1-4.8,1.7-7.2,1.7V231
	L495.8,115.3z"/>
</svg>
